<svg width="459" height="85" viewBox="0 0 459 85" fill="none" xmlns="http://www.w3.org/2000/svg">
<path d="M17.699 58.9993C16.699 58.5993 15.299 57.9993 14.899 56.7993C14.499 55.4993 14.799 52.7993 14.999 51.7993L20.799 18.7993L40.599 58.8993C40.899 59.5993 41.199 59.7993 41.599 58.9993L60.099 18.4993L66.099 54.3993C66.299 55.5993 66.699 57.4993 64.699 58.9993C63.999 59.5993 64.499 60.1993 65.299 59.9993C65.599 59.8993 68.399 59.5993 69.999 59.4993C71.599 59.4993 74.499 59.5993 75.999 59.8993C77.099 60.0993 77.299 59.1993 76.699 58.9993C75.499 58.5993 72.999 58.1993 72.399 54.9993L65.399 13.5993C64.999 10.6993 66.699 9.29934 69.399 8.99934C70.199 8.99934 70.299 7.79934 69.099 7.99934C67.399 8.19934 64.599 8.19934 63.599 8.19934C62.599 8.19934 60.199 7.99934 59.399 7.89934C58.599 7.79934 58.399 8.29934 58.699 9.19934C58.999 9.99934 58.899 11.3993 58.399 12.5993L42.299 48.4993L24.799 12.7993C24.299 11.6993 23.899 9.79934 24.299 8.99934C24.599 8.39934 24.299 7.79934 23.499 7.99934C22.699 8.09934 20.299 8.19934 19.099 8.19934C17.899 8.19934 13.899 8.09934 13.099 7.99934C12.199 7.89934 12.099 8.89934 12.799 9.09934C14.499 9.49934 15.799 9.89934 16.699 10.7993C17.299 11.3993 18.099 12.4993 17.799 13.9993L10.399 53.9993C9.89902 56.1993 9.29902 58.0993 6.19902 58.9993C5.59902 59.1993 5.79902 60.1993 6.49902 60.0993C8.29902 59.6993 9.99902 59.5993 12.199 59.5993C14.499 59.5993 16.699 59.9993 17.499 60.0993C18.099 60.1993 18.399 59.2993 17.699 58.9993Z" fill="black"/>
<path d="M94.3975 54.5992C94.0975 55.3992 93.3975 57.3992 94.5975 59.1992C94.8975 59.6992 94.4975 60.1992 93.8975 59.9992C93.4975 59.8992 92.2975 59.5992 90.1975 59.5992C88.2975 59.5992 87.1975 59.8992 85.4975 60.0992C84.6975 60.1992 84.4975 59.1992 85.1975 58.9992C87.8975 58.1992 89.3975 55.9992 90.0975 54.5992L110.697 7.79922C110.997 6.99922 111.497 6.99922 111.797 7.79922L131.197 53.4992C132.397 56.2992 134.097 58.1992 136.397 58.8992C137.197 59.1992 136.897 60.0992 136.197 59.9992C135.497 59.8992 133.397 59.4992 130.497 59.4992C127.597 59.4992 126.497 59.7992 125.297 60.0992C124.797 60.1992 124.297 59.7992 124.797 59.1992C126.497 56.8992 124.997 53.9992 124.697 53.2992L121.897 46.3992H97.8975L94.3975 54.5992ZM120.497 43.3992L109.897 17.6992L99.1975 43.3992H120.497Z" fill="black"/>
<path d="M183.301 53.3C184.101 54.4 187.301 58.8 192.801 58.8C193.601 58.8 193.501 59.9 192.801 59.9C186.701 60.2 183.001 59.7 177.701 54.1C174.001 50.2 164.401 37.7 162.301 35C162.001 34.6 161.901 34.3 162.401 34.3C163.101 34.3 169.301 35.1 173.101 29.6C176.801 24.1 174.801 17.7 174.301 16.5C173.801 15.3 171.701 10.3 164.801 9.8C162.501 9.7 160.501 10.5 160.001 10.8C159.501 11.1 159.001 11.5 158.901 12.7V55C158.901 57.7 160.701 58.5 162.101 59C162.801 59.2 162.501 60.2 161.801 60.1C161.101 60 158.601 59.6 156.001 59.6C153.401 59.6 151.201 59.8 150.201 60C149.601 60.1 149.301 59.2 149.901 58.9C151.801 58.1 153.001 56.9 153.001 55V12.5C153.001 11.4 152.001 9.6 149.901 9C149.201 8.8 149.301 7.8 150.201 7.9C150.801 8 152.401 8.3 155.001 8.3C156.601 8.3 163.001 7.5 165.301 7.5C168.601 7.5 173.901 8.2 177.401 11.7C180.601 14.9 181.301 18.8 181.301 20.6C181.301 23.1 180.801 27.6 177.201 31.2C174.301 34.1 171.101 35 170.401 35.2C170.101 35.3 170.001 35.4 170.201 35.7L183.301 53.3Z" fill="black"/>
<path d="M220.599 57.1984L202.099 15.3984C201.499 14.0984 199.999 10.5984 196.199 8.89843C195.499 8.59843 195.899 7.79843 196.499 7.89843C198.699 8.19843 200.799 8.29843 202.299 8.29843C203.799 8.29843 207.899 7.89843 208.899 7.79843C209.399 7.79843 209.599 8.49843 209.299 8.79843C208.699 9.29843 206.799 10.7984 207.999 13.4984L224.399 50.3984L243.899 13.7984C244.699 12.3984 244.599 9.69843 242.999 8.59843C242.499 8.29843 242.699 7.49843 243.399 7.59843C244.199 7.69843 247.399 7.99843 248.899 7.99843C250.399 7.99843 253.299 7.79843 253.999 7.69843C254.499 7.59843 254.899 8.39843 254.199 8.69843C252.699 9.39843 250.699 10.0984 247.599 15.7984L218.399 70.5984C216.799 73.4984 212.699 77.4984 205.999 76.9984C205.399 76.9984 205.199 76.0984 205.899 75.8984C207.399 75.4984 211.599 74.5984 213.499 70.8984L220.599 57.1984Z" fill="black"/>
<path d="M295.099 8.2992C296.799 8.2992 299.599 8.0992 300.699 7.9992C301.299 7.8992 301.699 8.8992 300.799 9.0992C299.999 9.2992 298.299 9.7992 298.299 12.1992V54.7992C298.299 56.0992 298.599 58.2992 301.099 58.8992C301.899 59.0992 301.599 60.0992 300.999 59.9992C299.299 59.6992 297.499 59.4992 295.299 59.4992C293.199 59.4992 290.299 59.6992 289.399 59.8992C288.499 59.9992 288.399 58.9992 289.199 58.7992C290.799 58.4992 292.399 57.2992 292.399 54.7992C292.399 52.3992 292.399 13.3992 292.399 12.0992C292.399 10.1992 290.399 9.3992 289.699 9.1992C289.099 8.9992 289.199 8.0992 289.899 8.0992C290.999 8.0992 293.299 8.2992 295.099 8.2992Z" fill="black"/>
<path d="M339.7 54.9984L360.4 7.99844C360.7 7.19844 361.2 7.19844 361.5 7.99844L380.9 53.6984C382.1 56.4984 383.8 58.3984 386.1 59.0984C386.9 59.3984 386.6 60.2984 385.9 60.1984C385.2 60.0984 383.1 59.6984 380.2 59.6984C377.3 59.6984 376.2 59.9984 375 60.2984C374.5 60.3984 374 59.9984 374.5 59.3984C376.2 57.0984 374.7 54.1984 374.4 53.4984L371.6 46.5984H347.6L344.2 54.6984C343.9 55.4984 343.2 57.4984 344.4 59.2984C344.7 59.7984 344.3 60.2984 343.7 60.0984C343.3 59.9984 342.1 59.6984 340 59.6984C338.2 59.6984 336.4 59.7984 335.2 59.8984C334.2 59.9984 331 60.1984 326.9 58.0984C321.3 55.2984 313.2 45.6984 311.9 44.1984L300.4 31.1984C300.1 30.8984 300.2 30.6984 300.5 30.4984L318.2 11.7984C319.5 10.3984 319.6 9.39844 319.5 8.89844C319.4 8.39844 319.4 7.79844 320.3 7.89844C321.2 7.99844 322.3 8.19844 324.5 8.19844C326.7 8.19844 327.4 8.09844 329 7.89844C329.8 7.79844 329.9 8.89844 329.1 8.99844C326.2 9.59844 322.9 11.3984 320.4 13.9984L306 29.0984L326.4 52.9984C328.4 55.2984 330.3 56.7984 331.6 57.4984C333.6 58.5984 335.3 58.3984 336.5 58.0984C338.2 57.4984 339 56.3984 339.7 54.9984ZM370 43.5984L359.4 17.8984L348.7 43.4984L370 43.5984Z" fill="black"/>
<path d="M412.598 57.1984L394.098 15.3984C393.498 14.0984 391.998 10.5984 388.198 8.89843C387.598 8.59843 387.898 7.79843 388.498 7.89843C390.698 8.19843 392.798 8.29843 394.298 8.29843C395.798 8.29843 399.898 7.89843 400.898 7.79843C401.398 7.79843 401.598 8.49843 401.298 8.79843C400.698 9.29843 398.798 10.7984 399.998 13.4984L416.398 50.3984L435.898 13.7984C436.698 12.3984 436.598 9.69843 434.998 8.59843C434.498 8.29843 434.698 7.49843 435.398 7.59843C436.198 7.69843 439.398 7.99843 440.898 7.99843C442.398 7.99843 445.298 7.79843 445.998 7.69843C446.498 7.59843 446.898 8.39843 446.198 8.69843C444.698 9.39843 442.698 10.0984 439.598 15.7984L410.398 70.5984C408.798 73.4984 404.698 77.4984 397.998 76.9984C397.398 76.9984 397.198 76.0984 397.898 75.8984C399.398 75.4984 403.598 74.5984 405.598 70.8984L412.598 57.1984Z" fill="black"/>
<path d="M449.599 7.89844C451.099 7.89844 452.399 9.09844 452.399 10.6984C452.399 12.2984 451.099 13.5984 449.599 13.5984C447.999 13.5984 446.699 12.3984 446.699 10.6984C446.699 9.09844 447.999 7.89844 449.599 7.89844ZM449.599 13.1984C450.899 13.1984 451.899 12.1984 451.899 10.7984C451.899 9.39844 450.899 8.39844 449.599 8.39844C448.299 8.39844 447.299 9.39844 447.299 10.7984C447.199 12.0984 448.199 13.1984 449.599 13.1984ZM448.499 9.09844H449.799C450.599 9.09844 450.999 9.39844 450.999 9.99844C450.999 10.5984 450.599 10.7984 450.099 10.8984L450.999 12.3984H450.399L449.499 10.9984H448.999V12.3984H448.499V9.09844ZM448.999 10.5984H449.499C449.999 10.5984 450.399 10.5984 450.399 10.0984C450.399 9.69844 449.999 9.59844 449.699 9.59844H448.999V10.5984Z" fill="black"/>
</svg>
