<?xml version="1.0" encoding="UTF-8"?>
<svg id="Layer_1" data-name="Layer 1" xmlns="http://www.w3.org/2000/svg" viewBox="0 0 342.21 50.32">
  <defs>
    <style>
      .cls-1 {
        fill: #fff;
        stroke-width: 0px;
      }
    </style>
  </defs>
  <g>
    <path class="cls-1" d="m109.76.29h18.09c5.72,0,10.37,1.71,13.37,4.72,2.64,2.65,4.14,6.43,4.14,11.01v.29c0,7.72-4.29,12.51-10.36,14.65l14.88,19.37h-9.58l-13.73-17.73c-.14.07-.36.07-.5.07h-8.01v17.66h-8.29V.29Zm17.23,24.95c6.43,0,10.01-3.43,10.01-8.65v-.14c0-5.65-3.65-8.58-9.86-8.58h-9.08v17.37h8.94Z"/>
    <path class="cls-1" d="m166.93,30.38L150.06.29h9.51l11.58,21.66L182.8.29h9.22l-16.8,30.02v20.02h-8.29v-19.94Z"/>
    <path class="cls-1" d="m317.12,30.38L300.25.29h9.51l11.58,21.66L332.99.29h9.22l-16.8,30.02v20.02h-8.29v-19.94Z"/>
    <polygon class="cls-1" points="23.26 36.04 8.29 .29 0 .29 0 50.32 8.43 50.32 8.43 20.86 20.8 50.32 25.59 50.32 38.06 19.55 38.06 50.32 46.45 50.32 46.45 .29 38.1 .29 23.26 36.04"/>
    <polygon class="cls-1" points="243.29 .29 225.69 21.27 225.24 21.27 225.24 .29 216.83 .29 216.83 50.32 225.24 50.32 225.24 29.24 225.6 29.24 243.96 50.32 254.45 50.32 232.31 25.31 253.78 .29 243.29 .29"/>
    <path class="cls-1" d="m92.15,50.32h8.65L82.43,0h-8.01l-18.37,50.32h8.36l3.14-8.9h21.45l3.14,8.9Zm-21.93-16.42l8.07-22.83,8.07,22.83h-16.13Z"/>
    <path class="cls-1" d="m293.8,50.32h8.65L284.07,0h-8.01l-18.37,50.32h8.36l3.14-8.9h21.45l3.14,8.9Zm-21.93-16.42l8.07-22.83,8.07,22.83h-16.13Z"/>
  </g>
  <path class="cls-1" d="m330.6,46.49c1.04,0,1.92.82,1.92,1.9,0,1.1-.87,1.92-1.92,1.92-1.05,0-1.93-.82-1.93-1.92,0-1.08.88-1.9,1.93-1.9Zm0,3.54c.88,0,1.57-.71,1.57-1.64,0-.91-.68-1.62-1.57-1.62-.89,0-1.58.71-1.58,1.62,0,.94.69,1.64,1.58,1.64Zm-.75-2.75h.86c.53,0,.78.21.78.64,0,.4-.26.57-.59.61l.64.99h-.37s-.61-.96-.61-.96h-.37s0,.96,0,.96h-.35v-2.23Zm.35.99h.36c.31,0,.59-.02.59-.37,0-.3-.26-.34-.49-.34h-.46v.71Z"/>
</svg>