<svg width="33" height="33" viewBox="0 0 33 33" fill="none" xmlns="http://www.w3.org/2000/svg">
<path d="M22.25 4.33399C20.578 4.33399 18.992 4.99399 17.812 6.17799L16.344 7.64599C15.7591 8.22752 15.295 8.91905 14.9785 9.68073C14.6621 10.4424 14.4994 11.2592 14.5 12.084C14.5 12.877 14.652 13.65 14.938 14.365L16.562 12.74C16.4567 12.0755 16.5094 11.3955 16.7158 10.7551C16.9222 10.1147 17.2765 9.53198 17.75 9.05399L19.219 7.58499C19.6172 7.18747 20.0899 6.87237 20.6099 6.65771C21.13 6.44305 21.6874 6.33305 22.25 6.33399C23.387 6.33399 24.445 6.77899 25.25 7.58399C26.0475 8.38497 26.4952 9.46922 26.4952 10.5995C26.4952 11.7298 26.0475 12.814 25.25 13.615L23.781 15.084C23.3827 15.4813 22.91 15.7962 22.3899 16.0107C21.8699 16.2252 21.3126 16.3351 20.75 16.334C20.527 16.334 20.309 16.311 20.094 16.271L18.469 17.897C19.1947 18.1861 19.9688 18.3344 20.75 18.334C22.422 18.334 24.008 17.674 25.188 16.49L26.656 15.022C27.2409 14.4405 27.705 13.7489 28.0215 12.9872C28.3379 12.2256 28.5006 11.4088 28.5 10.584C28.5 8.91199 27.84 7.36099 26.656 6.17799C26.0809 5.59336 25.3951 5.12919 24.6386 4.81258C23.8821 4.49598 23.0701 4.33328 22.25 4.33399ZM19.781 11.615L11.781 19.615L13.219 21.053L21.219 13.053L19.781 11.615ZM12.25 14.334C10.578 14.334 8.992 14.994 7.812 16.178L6.344 17.647C5.7592 18.2284 5.29521 18.9198 4.97873 19.6813C4.66226 20.4428 4.49956 21.2593 4.5 22.084C4.5 23.756 5.16 25.307 6.344 26.49C6.9191 27.0746 7.60493 27.5388 8.36143 27.8554C9.11792 28.172 9.92992 28.3347 10.75 28.334C12.422 28.334 14.008 27.674 15.188 26.49L16.656 25.022C17.2409 24.4405 17.705 23.7489 18.0215 22.9872C18.3379 22.2256 18.5006 21.4088 18.5 20.584C18.5 19.791 18.348 19.018 18.062 18.303L16.437 19.928C16.5426 20.5926 16.4901 21.2727 16.2839 21.9133C16.0777 22.5538 15.7235 23.1368 15.25 23.615L13.781 25.084C13.3827 25.4813 12.91 25.7962 12.3899 26.0107C11.8699 26.2252 11.3126 26.3351 10.75 26.334C10.1921 26.3349 9.63948 26.2249 9.12445 26.0103C8.60942 25.7957 8.14221 25.4808 7.75 25.084C6.95255 24.283 6.50483 23.1988 6.50483 22.0685C6.50483 20.9382 6.95255 19.854 7.75 19.053L9.219 17.584C9.61727 17.1867 10.09 16.8717 10.6101 16.6573C11.1302 16.4428 11.6874 16.3329 12.25 16.334C12.473 16.334 12.691 16.357 12.906 16.397L14.531 14.772C13.8053 14.4826 13.0312 14.3339 12.25 14.334Z" fill="#1E93FF"/>
</svg>
