<svg id="圖層_1" data-name="圖層 1" xmlns="http://www.w3.org/2000/svg" viewBox="0 0 315.07 48.29"><path d="M148,432.93c-.67-.28-1.61-.67-1.9-1.52a8.91,8.91,0,0,1,.1-3.43l4-22.67,13.57,27.52c.23.5.42.63.67.1l12.71-27.81,4.1,24.62a2.91,2.91,0,0,1-.93,3.19c-.5.39-.17.81.38.67a27.15,27.15,0,0,1,3.24-.34,23,23,0,0,1,4.12.29c.76.16.9-.48.47-.62-.81-.27-2.57-.53-2.95-2.74l-4.78-28.38c-.29-2,.9-3,2.72-3.15.53-.06.56-.85-.25-.75-1.13.13-3.07.17-3.78.17s-2.34-.15-2.86-.2-.71.29-.48.86a3.36,3.36,0,0,1-.21,2.31L164.9,425.69l-12-24.45a4,4,0,0,1-.37-2.59c.18-.42,0-.81-.53-.72a26.44,26.44,0,0,1-3,.15c-.86,0-3.58-.11-4.1-.15s-.68.65-.21.75a5,5,0,0,1,2.66,1.18,2.49,2.49,0,0,1,.74,2.21l-5,27.43c-.33,1.5-.74,2.82-2.91,3.43a.38.38,0,0,0,.19.74,18.19,18.19,0,0,1,3.91-.36,19.75,19.75,0,0,1,3.61.36A.38.38,0,0,0,148,432.93Z" transform="translate(-139.87 -397)" fill="#fff"/><path d="M200.67,429.88a3.37,3.37,0,0,0,.14,3.17.38.38,0,0,1-.45.57,9.37,9.37,0,0,0-2.55-.26,19.9,19.9,0,0,0-3.21.33.38.38,0,1,1-.18-.74,5.57,5.57,0,0,0,3.37-3l14.11-32.12c.24-.54.55-.55.79,0L226,429.17a6.33,6.33,0,0,0,3.54,3.71.38.38,0,1,1-.14.75,22.36,22.36,0,0,0-3.92-.37,12.23,12.23,0,0,0-3.58.43c-.31.08-.66-.2-.35-.63,1.14-1.57.12-3.57-.07-4l-1.95-4.71H203Zm17.88-7.66-7.29-17.62-7.33,17.59Z" transform="translate(-139.87 -397)" fill="#fff"/><path d="M261.66,429c.57.76,2.71,3.76,6.52,3.76a.38.38,0,1,1,0,.76c-4.21.22-6.71-.14-10.35-4-2.53-2.66-9.12-11.26-10.55-13.12-.19-.24-.3-.5.1-.5s4.76.55,7.33-3.21,1.19-8.19.86-9a7.1,7.1,0,0,0-6.53-4.57,6,6,0,0,0-3.28.71,1.46,1.46,0,0,0-.77,1.29v29.05a2.72,2.72,0,0,0,2.19,2.74.38.38,0,0,1-.2.74,25.65,25.65,0,0,0-7.95-.08.38.38,0,0,1-.18-.73,2.87,2.87,0,0,0,2.1-2.68V401a3,3,0,0,0-2.13-2.43.38.38,0,1,1,.18-.73,20.53,20.53,0,0,0,3.28.26c1.1,0,5.52-.53,7.1-.53,2.23,0,5.92.5,8.28,2.86a9.24,9.24,0,0,1,2.67,6.09,10.24,10.24,0,0,1-2.81,7.29,10.73,10.73,0,0,1-4.67,2.77c-.19.06-.3.16-.14.32Z" transform="translate(-139.87 -397)" fill="#fff"/><path d="M287.23,431.71,274.57,403a8.29,8.29,0,0,0-4.07-4.45.37.37,0,0,1,.21-.71,35,35,0,0,0,4,.26c1,0,3.82-.27,4.53-.33a.38.38,0,0,1,.25.67,2.58,2.58,0,0,0-.92,3.23L289.76,427l13.4-25.14c.52-1,.48-2.84-.65-3.55a.38.38,0,0,1,.25-.71c.56.07,2.71.27,3.76.27s3-.12,3.51-.19a.37.37,0,0,1,.16.72c-1.06.51-2.39,1-4.53,4.84l-20.05,37.61a8.83,8.83,0,0,1-8.53,4.41.38.38,0,0,1-.05-.76c1.05-.25,3.89-.91,5.25-3.41Z" transform="translate(-139.87 -397)" fill="#fff"/><path d="M338.39,398.14c1.14,0,3.11-.1,3.87-.2a.38.38,0,1,1,.06.75,2,2,0,0,0-1.74,2.12V430a2.58,2.58,0,0,0,1.93,2.82.37.37,0,0,1-.09.74,19.86,19.86,0,0,0-3.89-.35,36,36,0,0,0-4.08.25.38.38,0,1,1-.14-.74,2.6,2.6,0,0,0,2.18-2.74c0-1.67,0-28.38,0-29.33,0-1.28-1.38-1.87-1.83-2s-.37-.79.13-.74C335.55,398,337.15,398.14,338.39,398.14Z" transform="translate(-139.87 -397)" fill="#fff"/><path d="M369,430.19,383.16,398c.23-.55.54-.56.78,0l13.29,31.33a6.29,6.29,0,0,0,3.53,3.71.38.38,0,1,1-.14.75,22.36,22.36,0,0,0-3.92-.37,12.09,12.09,0,0,0-3.57.43c-.32.08-.67-.2-.36-.63,1.15-1.57.12-3.56-.07-4l-1.95-4.72H374.28L371.92,430a3.37,3.37,0,0,0,.14,3.17.38.38,0,0,1-.45.57,9.37,9.37,0,0,0-2.55-.26c-1.25,0-2.44.06-3.29.11a10.87,10.87,0,0,1-5.72-1.24c-3.85-1.95-9.4-8.54-10.28-9.53l-7.91-9c-.21-.21-.11-.33.05-.47l12.14-12.81a2.47,2.47,0,0,0,.91-2c0-.33,0-.76.57-.67a16.84,16.84,0,0,0,2.9.19,25,25,0,0,0,3.1-.2.38.38,0,1,1,.09.75,11.69,11.69,0,0,0-5.95,3.41l-9.81,10.33,14,16.41a13.72,13.72,0,0,0,3.58,3.11,4.11,4.11,0,0,0,3.34.38A3.79,3.79,0,0,0,369,430.19Zm20.82-7.82-7.29-17.62-7.33,17.59Z" transform="translate(-139.87 -397)" fill="#fff"/><path d="M419,431.71,406.34,403a8.29,8.29,0,0,0-4.07-4.45.37.37,0,0,1,.21-.71,35.3,35.3,0,0,0,4,.26c1,0,3.81-.27,4.52-.33a.38.38,0,0,1,.25.67,2.58,2.58,0,0,0-.92,3.23L421.53,427l13.4-25.14c.53-1,.49-2.84-.65-3.55a.38.38,0,0,1,.25-.71c.57.07,2.71.27,3.76.27s3-.12,3.51-.19a.38.38,0,0,1,.17.72c-1.06.51-2.4,1-4.54,4.84l-20,37.61a8.86,8.86,0,0,1-8.54,4.41.38.38,0,0,1-.05-.76c1.06-.25,3.9-.91,5.25-3.41Z" transform="translate(-139.87 -397)" fill="#fff"/><path d="M447.78,399.15h2.33c1.41,0,2,.59,2,1.72a1.66,1.66,0,0,1-1.61,1.65l1.86,2.85h-.59l-1.87-2.87h-1.62v2.87h-.53Zm.53,2.89h1.32c.95,0,2-.1,2-1.18s-.83-1.24-1.57-1.24h-1.72Zm-3.35.22a4.73,4.73,0,1,0,9.46,0,4.73,4.73,0,1,0-9.46,0Zm10,0a5.26,5.26,0,1,1-5.26-5.26A5.25,5.25,0,0,1,455,402.26Z" transform="translate(-139.87 -397)" fill="#fff"/></svg>