<?xml version="1.0" encoding="utf-8"?>
<!-- Generator: Adobe Illustrator 24.2.3, SVG Export Plug-In . SVG Version: 6.00 Build 0)  -->
<svg version="1.0" id="Layer_1" xmlns="http://www.w3.org/2000/svg" xmlns:xlink="http://www.w3.org/1999/xlink" x="0px" y="0px"
	 viewBox="0 0 458.2 84.2" enable-background="new 0 0 458.2 84.2" xml:space="preserve">
<g>
	<g>
		<g>
			<path fill="#FFFFFF" d="M17.7,59c-1-0.4-2.4-1-2.8-2.2c-0.4-1.3-0.1-4,0.1-5l5.8-33l19.8,40.1c0.3,0.7,0.6,0.9,1,0.1l18.5-40.5
				l6,35.9c0.2,1.2,0.6,3.1-1.4,4.6c-0.7,0.6-0.2,1.2,0.6,1c0.3-0.1,3.1-0.4,4.7-0.5c1.6,0,4.5,0.1,6,0.4c1.1,0.2,1.3-0.7,0.7-0.9
				c-1.2-0.4-3.7-0.8-4.3-4l-7-41.4c-0.4-2.9,1.3-4.3,4-4.6C70.2,9,70.3,7.8,69.1,8c-1.7,0.2-4.5,0.2-5.5,0.2c-1,0-3.4-0.2-4.2-0.3
				c-0.8-0.1-1,0.4-0.7,1.3c0.3,0.8,0.2,2.2-0.3,3.4L42.3,48.5L24.8,12.8c-0.5-1.1-0.9-3-0.5-3.8c0.3-0.6,0-1.2-0.8-1
				c-0.8,0.1-3.2,0.2-4.4,0.2c-1.2,0-5.2-0.1-6-0.2c-0.9-0.1-1,0.9-0.3,1.1c1.7,0.4,3,0.8,3.9,1.7c0.6,0.6,1.4,1.7,1.1,3.2l-7.4,40
				c-0.5,2.2-1.1,4.1-4.2,5c-0.6,0.2-0.4,1.2,0.3,1.1c1.8-0.4,3.5-0.5,5.7-0.5c2.3,0,4.5,0.4,5.3,0.5C18.1,60.2,18.4,59.3,17.7,59z"
				/>
			<path fill="#FFFFFF" d="M94.4,54.6c-0.3,0.8-1,2.8,0.2,4.6c0.3,0.5-0.1,1-0.7,0.8c-0.4-0.1-1.6-0.4-3.7-0.4c-1.9,0-3,0.3-4.7,0.5
				c-0.8,0.1-1-0.9-0.3-1.1c2.7-0.8,4.2-3,4.9-4.4l20.6-46.8c0.3-0.8,0.8-0.8,1.1,0l19.4,45.7c1.2,2.8,2.9,4.7,5.2,5.4
				c0.8,0.3,0.5,1.2-0.2,1.1c-0.7-0.1-2.8-0.5-5.7-0.5c-2.9,0-4,0.3-5.2,0.6c-0.5,0.1-1-0.3-0.5-0.9c1.7-2.3,0.2-5.2-0.1-5.9
				l-2.8-6.9h-24L94.4,54.6z M120.5,43.4l-10.6-25.7L99.2,43.4L120.5,43.4z"/>
			<path fill="#FFFFFF" d="M183.3,53.3c0.8,1.1,4,5.5,9.5,5.5c0.8,0,0.7,1.1,0,1.1c-6.1,0.3-9.8-0.2-15.1-5.8
				c-3.7-3.9-13.3-16.4-15.4-19.1c-0.3-0.4-0.4-0.7,0.1-0.7c0.7,0,6.9,0.8,10.7-4.7c3.7-5.5,1.7-11.9,1.2-13.1
				c-0.5-1.2-2.6-6.2-9.5-6.7c-2.3-0.1-4.3,0.7-4.8,1c-0.5,0.3-1,0.7-1.1,1.9V55c0,2.7,1.8,3.5,3.2,4c0.7,0.2,0.4,1.2-0.3,1.1
				c-0.7-0.1-3.2-0.5-5.8-0.5c-2.6,0-4.8,0.2-5.8,0.4c-0.6,0.1-0.9-0.8-0.3-1.1c1.9-0.8,3.1-2,3.1-3.9V12.5c0-1.1-1-2.9-3.1-3.5
				c-0.7-0.2-0.6-1.2,0.3-1.1c0.6,0.1,2.2,0.4,4.8,0.4c1.6,0,8-0.8,10.3-0.8c3.3,0,8.6,0.7,12.1,4.2c3.2,3.2,3.9,7.1,3.9,8.9
				c0,2.5-0.5,7-4.1,10.6c-2.9,2.9-6.1,3.8-6.8,4c-0.3,0.1-0.4,0.2-0.2,0.5L183.3,53.3z"/>
			<path fill="#FFFFFF" d="M220.6,57.2l-18.5-41.8c-0.6-1.3-2.1-4.8-5.9-6.5c-0.7-0.3-0.3-1.1,0.3-1c2.2,0.3,4.3,0.4,5.8,0.4
				c1.5,0,5.6-0.4,6.6-0.5c0.5,0,0.7,0.7,0.4,1c-0.6,0.5-2.5,2-1.3,4.7l16.4,36.9l19.5-36.6c0.8-1.4,0.7-4.1-0.9-5.2
				c-0.5-0.3-0.3-1.1,0.4-1c0.8,0.1,4,0.4,5.5,0.4c1.5,0,4.4-0.2,5.1-0.3c0.5-0.1,0.9,0.7,0.2,1c-1.5,0.7-3.5,1.4-6.6,7.1
				l-29.2,54.8c-1.6,2.9-5.7,6.9-12.4,6.4c-0.6,0-0.8-0.9-0.1-1.1c1.5-0.4,5.7-1.3,7.6-5L220.6,57.2z"/>
			<path fill="#FFFFFF" d="M295.1,8.3c1.7,0,4.5-0.2,5.6-0.3c0.6-0.1,1,0.9,0.1,1.1c-0.8,0.2-2.5,0.7-2.5,3.1v42.6
				c0,1.3,0.3,3.5,2.8,4.1c0.8,0.2,0.5,1.2-0.1,1.1c-1.7-0.3-3.5-0.5-5.7-0.5c-2.1,0-5,0.2-5.9,0.4c-0.9,0.1-1-0.9-0.2-1.1
				c1.6-0.3,3.2-1.5,3.2-4c0-2.4,0-41.4,0-42.7c0-1.9-2-2.7-2.7-2.9c-0.6-0.2-0.5-1.1,0.2-1.1C291,8.1,293.3,8.3,295.1,8.3z"/>
			<path fill="#FFFFFF" d="M339.7,55l20.7-47c0.3-0.8,0.8-0.8,1.1,0l19.4,45.7c1.2,2.8,2.9,4.7,5.2,5.4c0.8,0.3,0.5,1.2-0.2,1.1
				c-0.7-0.1-2.8-0.5-5.7-0.5c-2.9,0-4,0.3-5.2,0.6c-0.5,0.1-1-0.3-0.5-0.9c1.7-2.3,0.2-5.2-0.1-5.9l-2.8-6.9h-24l-3.4,8.1
				c-0.3,0.8-1,2.8,0.2,4.6c0.3,0.5-0.1,1-0.7,0.8c-0.4-0.1-1.6-0.4-3.7-0.4c-1.8,0-3.6,0.1-4.8,0.2c-1,0.1-4.2,0.3-8.3-1.8
				c-5.6-2.8-13.7-12.4-15-13.9l-11.5-13c-0.3-0.3-0.2-0.5,0.1-0.7l17.7-18.7c1.3-1.4,1.4-2.4,1.3-2.9c-0.1-0.5-0.1-1.1,0.8-1
				c0.9,0.1,2,0.3,4.2,0.3c2.2,0,2.9-0.1,4.5-0.3c0.8-0.1,0.9,1,0.1,1.1c-2.9,0.6-6.2,2.4-8.7,5L306,29.1L326.4,53
				c2,2.3,3.9,3.8,5.2,4.5c2,1.1,3.7,0.9,4.9,0.6C338.2,57.5,339,56.4,339.7,55z M370,43.6l-10.6-25.7l-10.7,25.6L370,43.6z"/>
			<path fill="#FFFFFF" d="M412.6,57.2l-18.5-41.8c-0.6-1.3-2.1-4.8-5.9-6.5c-0.6-0.3-0.3-1.1,0.3-1c2.2,0.3,4.3,0.4,5.8,0.4
				c1.5,0,5.6-0.4,6.6-0.5c0.5,0,0.7,0.7,0.4,1c-0.6,0.5-2.5,2-1.3,4.7l16.4,36.9l19.5-36.6c0.8-1.4,0.7-4.1-0.9-5.2
				c-0.5-0.3-0.3-1.1,0.4-1c0.8,0.1,4,0.4,5.5,0.4c1.5,0,4.4-0.2,5.1-0.3c0.5-0.1,0.9,0.7,0.2,1c-1.5,0.7-3.5,1.4-6.6,7.1
				l-29.2,54.8c-1.6,2.9-5.7,6.9-12.4,6.4c-0.6,0-0.8-0.9-0.1-1.1c1.5-0.4,5.7-1.3,7.7-5L412.6,57.2z"/>
		</g>
		<g>
			<path fill="#FFFFFF" d="M449.6,7.9c1.5,0,2.8,1.2,2.8,2.8c0,1.6-1.3,2.9-2.8,2.9c-1.6,0-2.9-1.2-2.9-2.9
				C446.7,9.1,448,7.9,449.6,7.9z M449.6,13.2c1.3,0,2.3-1,2.3-2.4c0-1.4-1-2.4-2.3-2.4c-1.3,0-2.3,1-2.3,2.4
				C447.2,12.1,448.2,13.2,449.6,13.2z M448.5,9.1h1.3c0.8,0,1.2,0.3,1.2,0.9c0,0.6-0.4,0.8-0.9,0.9l0.9,1.5h-0.6l-0.9-1.4H449v1.4
				h-0.5V9.1z M449,10.6h0.5c0.5,0,0.9,0,0.9-0.5c0-0.4-0.4-0.5-0.7-0.5H449V10.6z"/>
		</g>
	</g>
</g>
</svg>
